HIERARCHY
ROOT Hips
{
	OFFSET 0.000000 35.082581 0.000000
	CHANNELS 6 Xposition Yposition Zposition Xrotation Yrotation Zrotation 
	JOINT Spine
	{
		OFFSET 0.000000 6.876099 0.125700
		CHANNELS 3 Xrotation Yrotation Zrotation
		JOINT Spine1
		{
			OFFSET 0.000000 5.730043 0.104720
			CHANNELS 3 Xrotation Yrotation Zrotation
			JOINT Spine1_split
			{
				OFFSET 0.000000 5.730043 0.104720
				CHANNELS 3 Xrotation Yrotation Zrotation
				JOINT Spine2
				{
					OFFSET 0.000000 5.730043 0.104720
					CHANNELS 3 Xrotation Yrotation Zrotation
					JOINT Neck
					{
						OFFSET 0.000000 10.314075 0.188496
						CHANNELS 3 Xrotation Yrotation Zrotation
						JOINT Head
						{
							OFFSET 0.000000 7.643700 -2.377400
							CHANNELS 3 Xrotation Yrotation Zrotation
							JOINT HeadTop_End
							{
								OFFSET 0.000000 43.788605 -13.619600
								CHANNELS 3 Xrotation Yrotation Zrotation
								End Site
								{
									OFFSET 0.000000 0.000000 0.000000
								}
							}
						}
					}
					JOINT LeftShoulder
					{
						OFFSET 2.196100 4.412489 0.087492
						CHANNELS 3 Xrotation Yrotation Zrotation
						JOINT LeftShoulder_split
						{
							OFFSET 2.196100 4.412489 0.087492
							CHANNELS 3 Xrotation Yrotation Zrotation
							JOINT LeftArm
							{
								OFFSET 8.771219 -2.981674 -0.026999
								CHANNELS 3 Xrotation Yrotation Zrotation
								JOINT LeftForeArm
								{
									OFFSET 8.512804 0.000000 -0.000000
									CHANNELS 3 Xrotation Yrotation Zrotation
									JOINT LeftHand
									{
										OFFSET 18.484802 0.000000 -0.000000
										CHANNELS 3 Xrotation Yrotation Zrotation
										JOINT LeftHandThumb1
										{
											OFFSET 2.499420 -1.158070 2.653252
											CHANNELS 3 Xrotation Yrotation Zrotation
											JOINT LeftHandThumb2
											{
												OFFSET 2.370079 -1.368366 1.368366
												CHANNELS 3 Xrotation Yrotation Zrotation
												JOINT LeftHandThumb3
												{
													OFFSET 2.676727 -1.545410 1.545409
													CHANNELS 3 Xrotation Yrotation Zrotation
													JOINT LeftHandThumb4
													{
														OFFSET 1.692226 -0.977005 0.977007
														CHANNELS 3 Xrotation Yrotation Zrotation
														End Site
														{
															OFFSET 0.000000 0.000000 0.000000
														}
													}
												}
											}
										}
										JOINT LeftHandIndex1
										{
											OFFSET 7.924831 -0.457527 2.345128
											CHANNELS 3 Xrotation Yrotation Zrotation
											JOINT LeftHandIndex2
											{
												OFFSET 3.643303 0.000000 0.000000
												CHANNELS 3 Xrotation Yrotation Zrotation
												JOINT LeftHandIndex3
												{
													OFFSET 3.810799 0.000000 0.000000
													CHANNELS 3 Xrotation Yrotation Zrotation
													JOINT LeftHandIndex4
													{
														OFFSET 2.403702 0.000000 0.000000
														CHANNELS 3 Xrotation Yrotation Zrotation
														End Site
														{
															OFFSET 0.000000 0.000000 0.000000
														}
													}
												}
											}
										}
										JOINT LeftHandMiddle1
										{
											OFFSET 8.563995 0.000000 -0.000000
											CHANNELS 3 Xrotation Yrotation Zrotation
											JOINT LeftHandMiddle2
											{
												OFFSET 3.861618 0.000000 0.000000
												CHANNELS 3 Xrotation Yrotation Zrotation
												JOINT LeftHandMiddle3
												{
													OFFSET 3.701603 0.000000 0.000000
													CHANNELS 3 Xrotation Yrotation Zrotation
													JOINT LeftHandMiddle4
													{
														OFFSET 2.322544 0.000000 0.000000
														CHANNELS 3 Xrotation Yrotation Zrotation
														End Site
														{
															OFFSET 0.000000 0.000000 0.000000
														}
													}
												}
											}
										}
										JOINT LeftHandRing1
										{
											OFFSET 8.426460 -0.424637 -3.286992
											CHANNELS 3 Xrotation Yrotation Zrotation
											JOINT LeftHandRing2
											{
												OFFSET 3.126408 0.000000 0.000000
												CHANNELS 3 Xrotation Yrotation Zrotation
												JOINT LeftHandRing3
												{
													OFFSET 3.085026 0.000000 0.000000
													CHANNELS 3 Xrotation Yrotation Zrotation
													JOINT LeftHandRing4
													{
														OFFSET 1.644005 0.000000 0.000000
														CHANNELS 3 Xrotation Yrotation Zrotation
														End Site
														{
															OFFSET 0.000000 0.000000 0.000000
														}
													}
												}
											}
										}
									}
								}
							}
						}
					}
					JOINT RightShoulder
					{
						OFFSET -2.196100 4.412496 0.070690
						CHANNELS 3 Xrotation Yrotation Zrotation
						JOINT RightShoulder_split
						{
							OFFSET -2.196100 4.412496 0.070690
							CHANNELS 3 Xrotation Yrotation Zrotation
							JOINT RightArm
							{
								OFFSET -8.771282 -2.981682 -0.094208
								CHANNELS 3 Xrotation Yrotation Zrotation
								JOINT RightForeArm
								{
									OFFSET -8.494598 0.000000 0.000000
									CHANNELS 3 Xrotation Yrotation Zrotation
									JOINT RightHand
									{
										OFFSET -18.483803 0.000000 0.000001
										CHANNELS 3 Xrotation Yrotation Zrotation
										JOINT RightHandThumb1
										{
											OFFSET -2.527351 -1.008072 2.575253
											CHANNELS 3 Xrotation Yrotation Zrotation
											JOINT RightHandThumb2
											{
												OFFSET -2.321518 -1.340328 1.340329
												CHANNELS 3 Xrotation Yrotation Zrotation
												JOINT RightHandThumb3
												{
													OFFSET -2.657753 -1.534454 1.534455
													CHANNELS 3 Xrotation Yrotation Zrotation
													JOINT RightHandThumb4
													{
														OFFSET -1.807510 -1.043568 1.043567
														CHANNELS 3 Xrotation Yrotation Zrotation
														End Site
														{
															OFFSET 0.000000 0.000000 0.000000
														}
													}
												}
											}
										}
										JOINT RightHandIndex1
										{
											OFFSET -8.811420 0.015533 2.887987
											CHANNELS 3 Xrotation Yrotation Zrotation
											JOINT RightHandIndex2
											{
												OFFSET -3.537502 0.000000 0.000000
												CHANNELS 3 Xrotation Yrotation Zrotation
												JOINT RightHandIndex3
												{
													OFFSET -3.356201 0.000000 0.000000
													CHANNELS 3 Xrotation Yrotation Zrotation
													JOINT RightHandIndex4
													{
														OFFSET -1.933098 0.000000 0.000000
														CHANNELS 3 Xrotation Yrotation Zrotation
														End Site
														{
															OFFSET 0.000000 0.000000 0.000000
														}
													}
												}
											}
										}
										JOINT RightHandMiddle1
										{
											OFFSET -8.178135 0.000000 0.000000
											CHANNELS 3 Xrotation Yrotation Zrotation
											JOINT RightHandMiddle2
											{
												OFFSET -3.901302 0.000000 0.000000
												CHANNELS 3 Xrotation Yrotation Zrotation
												JOINT RightHandMiddle3
												{
													OFFSET -3.909599 0.000000 0.000000
													CHANNELS 3 Xrotation Yrotation Zrotation
													JOINT RightHandMiddle4
													{
														OFFSET -2.376003 0.000000 0.000000
														CHANNELS 3 Xrotation Yrotation Zrotation
														End Site
														{
															OFFSET 0.000000 0.000000 0.000000
														}
													}
												}
											}
										}
										JOINT RightHandRing1
										{
											OFFSET -7.559013 0.014137 -2.865403
											CHANNELS 3 Xrotation Yrotation Zrotation
											JOINT RightHandRing2
											{
												OFFSET -3.449306 0.000000 0.000000
												CHANNELS 3 Xrotation Yrotation Zrotation
												JOINT RightHandRing3
												{
													OFFSET -3.362106 0.000000 0.000000
													CHANNELS 3 Xrotation Yrotation Zrotation
													JOINT RightHandRing4
													{
														OFFSET -2.076401 0.000000 0.000000
														CHANNELS 3 Xrotation Yrotation Zrotation
														End Site
														{
															OFFSET 0.000000 0.000000 0.000000
														}
													}
												}
											}
										}
									}
								}
							}
						}
					}
				}
			}
		}
	}
	JOINT LeftUpLeg
	{
		OFFSET 10.205400 -3.823500 0.155100
		CHANNELS 3 Xrotation Yrotation Zrotation
		JOINT LeftLeg
		{
			OFFSET 0.708757 -12.982077 0.567790
			CHANNELS 3 Xrotation Yrotation Zrotation
			JOINT LeftFoot
			{
				OFFSET -0.708756 -10.717838 -2.184338
				CHANNELS 3 Xrotation Yrotation Zrotation
				JOINT LeftToeBase
				{
					OFFSET 0.108149 -7.191104 7.560241
					CHANNELS 3 Xrotation Yrotation Zrotation
					JOINT LeftToe_End
					{
						OFFSET 0.070230 0.081724 4.490308
						CHANNELS 3 Xrotation Yrotation Zrotation
						End Site
						{
							OFFSET 0.000000 0.000000 0.000000
						}
					}
				}
			}
		}
	}
	JOINT RightUpLeg
	{
		OFFSET -10.205400 -3.823500 0.005500
		CHANNELS 3 Xrotation Yrotation Zrotation
		JOINT RightLeg
		{
			OFFSET -0.708756 -12.982134 0.610632
			CHANNELS 3 Xrotation Yrotation Zrotation
			JOINT RightFoot
			{
				OFFSET 0.708754 -10.717769 -1.945823
				CHANNELS 3 Xrotation Yrotation Zrotation
				JOINT RightToeBase
				{
					OFFSET -0.108140 -7.191069 7.372968
					CHANNELS 3 Xrotation Yrotation Zrotation
					JOINT RightToe_End
					{
						OFFSET -0.070227 0.081735 4.479403
						CHANNELS 3 Xrotation Yrotation Zrotation
						End Site
						{
							OFFSET 0.000000 0.000000 0.000000
						}
					}
				}
			}
		}
	}
}
MOTION
Frames: 4
Frame Time: 0.016667
-1.403936 31.106152 0.606838 -3.173801 -6.055495 5.153626 13.730721 -0.099228 -4.128863 2.722913 0.133859 -0.943517 0.000000 0.000000 0.000000 2.720021 0.135222 -0.952573 2.743908 0.369061 0.041968 21.918277 4.192715 -0.129340 -0.000000 -0.000000 0.000000 0.619247 -1.200864 -10.994840 0.000000 0.000000 0.000000 17.248876 -24.148521 -54.371595 0.000010 -28.855370 0.000011 24.205863 -0.057600 -1.453792 -13.734200 9.516281 2.120159 12.920916 20.445760 20.805446 1.615718 -13.628074 26.911953 -0.000001 -0.000001 -0.000001 0.624769 4.843183 -25.352344 0.379493 2.075995 -20.715400 1.406315 3.808971 -40.517481 -0.000000 0.000003 0.000000 0.442352 4.431077 -20.811023 0.385154 2.090950 -20.871755 1.613638 4.038434 -43.546639 -0.000000 -0.000002 -0.000000 0.553763 4.704294 -23.698197 0.384468 2.089152 -20.852940 1.498297 3.913808 -41.883509 -0.000001 0.000003 0.000000 0.265377 6.336864 17.304025 0.000000 0.000000 0.000000 14.561905 17.232548 47.386060 -0.000008 42.148981 0.000007 24.498009 9.178849 9.204386 -13.230999 -9.083815 -4.233050 14.743226 -13.848478 -17.282882 3.139537 -1.609820 -20.186477 0.000001 -0.000002 0.000003 0.733528 -4.698517 31.512372 0.755278 -2.544501 33.060141 0.755383 -2.544653 33.062145 0.000000 0.000001 -0.000000 0.728923 -4.705633 31.511354 0.755280 -2.544492 33.059922 0.846413 -2.679167 35.059737 -0.000002 0.000001 -0.000000 0.816088 -4.842840 33.512029 0.711543 -2.476074 32.061290 0.800309 -2.612297 34.060866 0.000000 -0.000002 0.000001 -70.480340 5.635756 6.519036 56.451206 0.447726 -4.817050 5.246901 -0.772103 0.535778 -1.242531 0.000001 0.000001 0.000000 -0.000000 0.000000 -10.990277 -7.395966 -6.480976 57.076674 8.202550 3.596638 -42.665064 3.868509 -9.153732 -5.454187 0.000040 0.000004 0.000000 0.000000 0.000000 
-1.397876 30.956715 0.840107 -3.055214 -6.064701 4.988353 13.849168 0.072146 -3.823348 2.787337 0.158803 -0.935779 0.000000 0.000000 0.000000 2.784213 0.161848 -0.946242 2.763233 0.364235 0.009162 21.835044 4.220364 -0.349116 -0.000002 -0.000000 -0.000000 0.629831 -1.288747 -11.002578 0.000000 0.000000 0.000000 17.403944 -24.407269 -54.849230 0.000000 -28.505407 0.000014 25.130402 -0.221164 -1.029085 -13.734144 9.516083 2.120194 12.920901 20.445903 20.805391 1.615750 -13.628024 26.911902 -0.000002 0.000000 -0.000006 0.626801 4.847521 -25.401771 0.414667 2.166683 -21.665859 1.439909 3.847849 -41.020678 0.000001 -0.000000 0.000000 0.439027 4.422250 -20.716741 0.416231 2.170637 -21.707564 1.638040 4.063887 -43.892011 0.000001 -0.000000 -0.000001 0.551145 4.698286 -23.632067 0.415330 2.168382 -21.683648 1.500101 3.915827 -41.909942 -0.000001 -0.000000 -0.000000 0.222711 6.699105 17.382089 0.000000 0.000000 0.000000 14.920436 17.286568 46.635982 0.000013 43.116027 -0.000004 24.299860 9.494717 9.224561 -13.085049 -9.143596 -3.844995 14.660646 -13.964693 -17.694040 3.136755 -1.610393 -20.186233 0.000001 -0.000003 -0.000004 0.754218 -4.732090 32.001492 0.777124 -2.577740 33.548885 0.777197 -2.577817 33.550333 0.000001 0.000001 0.000001 0.749943 -4.739706 32.000526 0.777108 -2.577711 33.548687 0.869382 -2.711548 35.548020 0.000000 -0.000001 -0.000000 0.838284 -4.876161 34.001348 0.732803 -2.509650 32.550031 0.822701 -2.645093 34.549112 -0.000001 -0.000001 -0.000000 -70.270817 5.093942 6.066261 51.324357 0.286271 -4.528767 9.165289 -0.710539 1.800585 -0.940471 0.000003 0.000000 0.000001 -0.000000 -0.000000 -10.580781 -7.449967 -6.372813 57.527330 8.395254 3.618770 -43.617130 3.899999 -9.224710 -5.455483 0.000036 0.000001 0.000001 0.000000 0.000000 
-1.380690 30.817833 1.053191 -2.874049 -6.177860 4.774604 13.963658 0.262743 -3.500540 2.847389 0.187924 -0.917955 0.000000 0.000000 0.000000 2.844039 0.192474 -0.929924 2.777819 0.367201 -0.028367 21.720490 4.314693 -0.576000 0.000004 0.000000 0.000000 0.640726 -1.333974 -11.005054 0.000000 0.000000 0.000000 17.374234 -24.472986 -55.481657 0.000013 -28.210927 0.000013 25.772438 -0.259555 -0.556241 -13.734056 9.515820 2.120254 12.920878 20.446118 20.805275 1.615822 -13.627941 26.911854 -0.000003 0.000001 -0.000002 0.627452 4.848889 -25.418653 0.447876 2.248435 -22.528204 1.468767 3.880698 -41.449006 0.000000 0.000001 -0.000000 0.435046 4.411625 -20.603349 0.446256 2.244512 -22.486742 1.640289 4.066227 -43.923823 0.000000 -0.000001 -0.000000 0.547651 4.690284 -23.544195 0.445586 2.242863 -22.469482 1.477518 3.890574 -41.578053 -0.000000 0.000000 -0.000001 0.180824 7.065465 17.444798 0.000000 0.000000 0.000000 15.301591 17.417524 45.815037 -0.000017 44.069545 0.000023 24.288093 9.779404 9.317234 -12.936538 -9.203455 -3.451717 14.577140 -14.082848 -18.110740 3.133927 -1.611110 -20.185970 -0.000002 -0.000002 0.000006 0.772975 -4.762056 32.439816 0.796945 -2.607333 33.987062 0.796964 -2.607366 33.987704 0.000000 -0.000000 0.000001 0.769054 -4.770135 32.438993 0.796950 -2.607329 33.986994 0.890179 -2.740394 35.985456 0.000000 -0.000002 0.000000 0.858443 -4.905898 34.439945 0.752097 -2.539611 32.988239 0.842998 -2.674292 34.986524 0.000001 -0.000001 -0.000000 -69.912047 4.537936 5.670349 46.173865 -0.484743 -4.126050 13.640148 -0.563811 3.127674 -0.917280 0.000002 0.000001 0.000002 -0.000000 0.000000 -10.335031 -7.496675 -6.247886 57.900012 8.697132 3.644042 -44.372010 3.942019 -9.348293 -5.450812 0.000033 0.000001 0.000000 -0.000000 -0.000000 
-1.364815 30.737362 1.160164 -2.609808 -6.309114 4.597702 14.080835 0.421793 -3.247925 2.901655 0.218669 -0.897719 0.000000 0.000000 0.000000 2.898098 0.224247 -0.911137 2.785682 0.373451 -0.062493 21.560426 4.426315 -0.753392 -0.000000 0.000000 0.000000 0.651119 -1.376278 -11.000242 0.000000 0.000000 0.000000 17.231027 -24.456425 -56.127629 0.000024 -27.965503 0.000013 26.138087 -0.195752 -0.169287 -13.733960 9.515505 2.120324 12.920855 20.446345 20.805113 1.615900 -13.627826 26.911767 -0.000000 0.000000 0.000001 0.626473 4.846806 -25.397591 0.478087 2.319894 -23.286459 1.492252 3.907070 -41.794747 -0.000001 0.000001 0.000000 0.430231 4.398733 -20.466158 0.475173 2.313100 -23.214100 1.618471 4.043496 -43.615160 0.000001 -0.000000 -0.000000 0.543125 4.679805 -23.429753 0.474909 2.312480 -23.207612 1.434030 3.841108 -40.933057 0.000000 -0.000002 0.000000 0.141490 7.412053 17.493868 0.000000 0.000000 0.000000 15.609463 17.553257 45.040303 0.000037 44.952661 -0.000058 24.556111 10.030629 9.405979 -12.785933 -9.263297 -3.054558 14.492987 -14.202504 -18.531616 3.131083 -1.611855 -20.185687 0.000001 -0.000001 0.000002 0.789431 -4.787878 32.818994 0.814275 -2.632829 34.366315 0.814271 -2.632819 34.365957 -0.000001 0.000001 -0.000000 0.785818 -4.796404 32.818332 0.814280 -2.632834 34.366343 0.908349 -2.765230 36.363784 -0.000001 0.000001 -0.000000 0.876132 -4.931579 34.819372 0.768997 -2.565429 33.367598 0.860744 -2.699440 35.364814 0.000001 0.000001 -0.000000 -69.531599 3.918308 5.598966 42.436143 -0.570178 -3.717671 16.532639 -0.534932 3.140088 -0.587606 0.000003 -0.000000 0.000001 -0.000000 -0.000000 -10.469918 -7.531574 -6.121729 58.112424 8.968137 3.659302 -44.668607 3.967056 -9.488950 -5.444566 0.000035 0.000001 0.000000 -0.000000 -0.000000 
